<?xml version="1.0" standalone="no"?>

<!DOCTYPE svg PUBLIC "-//W3C//DTD SVG 20010904//EN"

 "http://www.w3.org/TR/2001/REC-SVG-20010904/DTD/svg10.dtd">

<svg version="1.0" xmlns="http://www.w3.org/2000/svg"

 width="700.000000pt" height="601.000000pt" viewBox="0 0 700.000000 601.000000"

 preserveAspectRatio="xMidYMid meet">

<path fill="#000000" stroke="none" d="
M325 522

C305 507 300 504 295 503

C245 488 200 451 184 410

C183 407 181 400 180 396

L178 388

L167 387

C160 387 155 386 154 386

C154 385 153 384 153 382

C154 379 193 346 197 346

C199 346 205 351 218 361

C228 369 238 377 239 379

L242 382

L241 384

C240 387 239 387 228 387

L217 387

L217 389

C218 390 220 395 222 399

C228 412 243 426 260 435

C267 439 280 445 283 445

C284 446 286 446 288 447

C292 449 313 454 314 454

C314 453 316 426 317 392

C319 359 320 326 320 319

C321 312 321 301 322 295

L322 283

L318 283

C312 283 312 283 281 279

C235 273 237 273 236 270

C235 266 235 250 236 248

C237 247 238 246 238 246

C239 245 258 243 280 240

C302 237 321 235 323 234

L325 234

L326 205

C328 163 328 167 322 164

C315 160 305 150 301 141

C290 119 294 95 312 77

C333 56 368 55 389 77

C397 85 401 92 404 102

C408 117 407 128 400 141

C396 149 386 160 379 164

C373 167 373 163 375 205

C376 225 377 233 378 234

C379 235 387 236 397 237

C398 237 401 237 403 237

C411 239 460 245 461 244

L461 244

L463 246

C465 247 465 249 465 260

C465 269 465 272 464 273

C462 274 449 276 437 277

C428 278 383 284 381 285

L379 285

L379 303

C380 313 380 326 381 334

C381 341 382 370 383 400

C385 429 386 453 386 454

C387 455 405 450 416 446

C446 435 468 418 478 399

C480 395 482 390 482 390

L482 389

L473 389

C464 389 463 389 461 387

C459 386 458 384 458 383

C458 381 465 375 477 366

C499 347 501 346 504 347

C506 347 546 380 547 381

C547 382 547 383 547 385

L546 387

L534 387

L522 388

L520 394

C516 416 504 436 484 457

C462 478 437 493 406 502

C399 504 396 506 375 522

C362 532 350 540 350 540

C350 540 338 532 325 522

Z

M363 139

C371 135 376 126 376 116

C376 108 373 101 367 96

C362 91 357 90 349 90

C338 90 328 98 324 108

C323 115 323 116 324 123

C329 139 347 147 363 139

Z

"/>

<path fill="#2a2a2a" stroke="none" d="
M385 451

L385 449

L386 450

C386 450 386 452 386 452

L385 454

L385 451

Z

M315 428

L315 427

L316 428

L316 429

L316 430

L315 430

L315 428

Z

M384 427

L384 426

L385 427

L385 428

L385 429

L384 429

L384 427

Z

M237 419

L236 418

L237 419

C238 420 239 420 239 421

L239 421

L239 421

C238 421 238 420 237 419

Z

M464 418

C466 416 468 414 468 414

L468 414

L465 418

C463 419 461 421 461 421

L461 421

L464 418

Z

M231 414

L230 412

L232 413

C233 414 234 415 234 416

L234 416

L234 416

C233 416 232 415 231 414

Z

M316 406

L316 405

L317 406

L317 407

L317 408

L316 408

L316 406

Z

M383 403

L383 402

L384 403

L384 404

L384 405

L383 405

L383 403

Z

M467 388

C470 388 474 388 477 388

L482 389

L472 389

L463 389

L467 388

Z

M382 380

L382 379

L383 380

L383 381

L383 382

L382 382

L382 380

Z

M318 363

L318 362

L319 363

L319 364

L319 365

L318 365

L318 363

Z

M381 356

L381 355

L382 356

L382 357

L382 358

L381 358

L381 356

Z

M319 341

L319 340

L320 341

L320 342

L320 343

L319 343

L319 341

Z

M380 333

L380 332

L381 333

L381 334

L381 335

L380 335

L380 333

Z

M320 319

L320 318

L321 319

L321 320

L321 321

L320 321

L320 319

Z

M379 309

L379 308

L380 309

L380 310

L380 311

L379 311

L379 309

Z

M378 287

L379 285

L380 284

L382 284

L380 285

C380 285 379 286 379 287

L378 289

L378 287

Z

M235 259

L235 249

L236 254

C236 257 236 261 236 264

L235 269

L235 259

Z

M325 212

L325 211

L326 212

L326 213

L326 214

L325 214

L325 212

Z

M375 207

L375 206

L376 207

L376 208

L376 209

L375 209

L375 207

Z

M326 190

L326 189

L327 190

L327 191

L327 192

L326 192

L326 190

Z

M374 185

L374 184

L375 185

L375 186

L375 187

L374 187

L374 185

Z

"/>

<path fill="#bfbfbf" stroke="none" d="
M467 388

C470 388 474 388 477 388

L482 389

L472 389

L463 389

L467 388

Z

"/>

<path fill="#ffffff" stroke="none" d="
"/>

<path fill="#ffffff" stroke="none" d="
"/>

<path fill="#ffffff" stroke="none" d="
"/>

<path fill="#ffffff" stroke="none" d="
"/>

<path fill="#ffffff" stroke="none" d="
"/>

</svg>

