<?xml version="1.0" standalone="no"?>

<!DOCTYPE svg PUBLIC "-//W3C//DTD SVG 20010904//EN"

 "http://www.w3.org/TR/2001/REC-SVG-20010904/DTD/svg10.dtd">

<svg version="1.0" xmlns="http://www.w3.org/2000/svg"

 width="700.000000pt" height="603.000000pt" viewBox="0 0 700.000000 603.000000"

 preserveAspectRatio="xMidYMid meet">

<path fill="#000000" stroke="none" d="
M192 547

C118 547 118 547 112 544

C103 540 96 532 92 523

C89 517 89 516 88 501

C88 487 88 484 90 478

C92 472 92 471 90 465

C89 461 89 456 89 446

C89 435 89 432 91 427

C97 410 111 401 135 397

C140 397 147 396 150 396

L156 396

L155 387

C155 382 155 376 155 372

C155 366 155 366 171 354

C180 348 189 343 190 342

C191 342 193 342 194 344

C198 348 196 350 180 361

C165 372 165 372 166 381

C166 386 167 391 167 393

L168 396

L176 396

C186 396 203 398 211 401

C222 405 229 410 234 417

C242 429 244 444 241 465

L241 467

L242 467

L243 467

L251 417

C255 390 259 366 260 364

C260 362 261 360 261 360

L261 360

L254 359

C234 359 207 348 202 339

C200 333 197 330 193 330

C187 330 182 328 181 326

C181 324 182 320 183 315

C185 307 185 307 182 302

C181 300 179 298 178 297

C164 294 148 272 141 247

C138 236 137 218 139 207

C144 184 157 165 179 149

C183 145 189 142 190 141

C196 138 212 130 217 128

L222 127

L221 125

C220 122 220 110 221 105

C224 91 233 80 245 74

C252 71 253 71 264 71

C275 71 276 71 282 74

C294 79 301 88 305 100

C308 108 308 120 305 127

L303 133

L304 133

C308 134 321 144 328 151

C359 182 370 231 356 282

C354 289 349 306 347 311

L346 313

L352 315

C359 319 372 332 380 344

C389 357 389 357 396 366

C407 381 418 390 431 396

C441 402 448 403 458 403

C469 403 474 402 491 393

C516 380 544 372 570 371

C574 371 576 371 577 373

C579 375 579 379 579 456

C579 528 579 538 577 540

C576 542 576 542 519 542

C457 542 452 542 432 537

C414 532 389 521 371 509

L364 505

L364 506

C363 506 342 503 336 501

C333 501 328 499 325 497

L319 494

L318 495

C318 495 317 498 316 502

C312 521 299 537 282 543

C271 547 269 548 192 547

Z

M270 536

C283 533 296 523 302 511

C305 505 306 497 316 441

C321 407 326 377 326 375

C326 368 323 361 319 356

C308 344 290 343 278 355

C271 362 271 362 261 422

C253 473 252 477 250 479

C249 480 247 480 245 479

C233 475 225 476 208 481

C201 484 193 486 192 486

C190 487 186 487 184 488

C178 489 163 488 162 487

C161 487 160 484 159 481

C154 468 142 460 129 460

C120 460 115 462 108 468

C106 471 103 475 101 478

C99 482 99 484 99 498

C99 512 99 514 101 519

C106 528 111 533 120 536

C126 537 260 538 270 536

Z

M568 457

L568 382

L566 382

C561 382 545 385 535 387

C521 391 507 396 494 403

C482 410 474 412 468 413

L463 414

L463 416

C460 428 458 477 460 496

C462 517 465 531 468 531

C469 532 492 532 519 532

L568 532

L568 457

Z

M371 454

C376 451 378 446 378 440

C377 434 376 432 364 423

C354 415 346 408 339 400

L334 395

L334 397

C333 398 332 407 330 416

C328 433 328 433 331 436

C334 440 345 448 353 452

C359 457 366 457 371 454

Z

M273 345

C277 341 283 339 289 337

C292 336 293 335 296 331

C302 320 315 312 328 310

L335 310

L319 281

C310 265 303 252 303 251

C303 250 304 247 306 245

C314 234 316 224 312 219

C309 216 300 211 297 211

C295 211 266 226 257 232

L255 233

L259 241

C264 251 265 258 263 266

C259 275 257 277 225 295

C195 310 195 310 194 314

L193 318

L194 319

C195 320 197 320 198 320

C203 320 205 322 209 329

C213 335 215 338 223 341

C235 347 245 349 259 348

C269 348 269 348 273 345

Z

M220 285

C233 278 246 271 247 270

C251 267 253 262 253 257

C253 252 248 240 245 239

C245 239 230 247 213 256

C189 269 182 274 181 276

C181 277 182 280 185 285

C187 289 190 294 191 296

L192 299

L194 298

C195 298 207 292 220 285

Z

M265 215

C268 214 270 212 270 212

L270 211

L269 211

C266 211 251 206 246 202

L240 199

L239 199

C239 200 238 203 237 207

C234 216 231 224 226 232

C224 235 222 238 222 238

L222 239

L241 228

C251 223 262 217 265 215

Z

M495 245

C494 244 494 239 494 235

C494 224 495 222 500 222

C504 222 505 224 505 235

C505 245 504 247 500 247

C497 247 496 246 495 245

Z

M487 216

C441 209 411 166 418 121

C423 94 439 73 464 61

C472 57 485 53 491 53

L494 53

L494 47

C494 42 494 41 496 39

C501 34 505 38 505 47

L505 53

L509 53

C511 53 516 54 520 55

C550 63 571 85 579 115

C582 127 582 145 579 157

C574 173 567 184 556 195

C544 206 532 212 516 215

C509 217 493 217 487 216

Z

M420 214

C417 211 418 209 425 201

C430 196 432 195 435 195

C438 195 440 197 440 200

C440 202 426 216 424 216

C423 216 421 215 420 214

Z

M566 209

C559 201 558 199 561 197

C564 193 567 195 574 202

C578 206 581 209 581 210

C581 213 578 216 576 216

C574 216 571 214 566 209

Z

M390 140

C388 139 386 134 388 132

C389 131 391 130 400 130

C410 130 411 130 412 132

C414 135 412 139 409 140

C405 141 393 141 390 140

Z

M590 140

C587 139 585 135 587 132

C588 130 589 130 599 130

C608 130 610 131 611 132

C613 135 611 139 608 140

C605 141 594 141 590 140

Z

M425 68

C421 64 418 60 418 59

C418 57 421 54 424 54

C426 54 428 56 433 61

C440 68 441 71 438 73

C435 76 433 75 425 68

Z

M561 73

C558 70 559 68 566 61

C573 53 577 52 580 56

C582 60 580 62 573 69

C566 75 563 76 561 73

Z

"/>

<path fill="#242424" stroke="none" d="
M98 498

L98 487

L99 492

C99 495 99 501 99 504

L98 510

L98 498

Z

M362 505

L363 505

L364 505

L364 506

L362 506

L361 506

L362 505

Z

M175 488

L176 488

L177 488

L177 489

L175 489

L174 489

L175 488

Z

M230 476

C230 476 232 476 232 476

L234 477

L231 477

L229 477

L230 476

Z

M107 469

C108 467 110 466 110 466

L110 466

L108 469

C107 470 105 471 105 471

L105 471

L107 469

Z

M373 431

L372 429

L374 430

C375 431 376 432 376 433

L376 433

L376 433

C375 433 374 432 373 431

Z

M230 412

L229 411

L230 412

C231 413 232 413 232 414

L232 414

L232 414

C231 414 231 413 230 412

Z

M345 408

L344 406

L346 407

C347 408 348 409 348 410

L348 410

L348 410

C347 410 346 409 345 408

Z

M176 395

L177 395

L178 395

L178 396

L176 396

L175 396

L176 395

Z

M409 381

L406 378

L409 381

C411 383 413 385 413 385

L413 385

L413 385

C413 385 411 383 409 381

Z

M252 359

L253 359

L254 359

L254 360

L252 360

L251 360

L252 359

Z

M277 355

C277 354 279 353 279 353

L279 353

L278 355

C277 356 275 357 275 357

L275 357

L277 355

Z

M255 348

C257 348 259 348 261 348

L264 349

L258 349

L252 349

L255 348

Z

M253 256

L253 255

L254 256

L254 257

L254 258

L253 258

L253 256

Z

M314 225

L314 224

L315 225

L315 226

L315 227

L314 227

L314 225

Z

M419 208

C419 207 420 207 421 206

L423 205

L421 206

C420 207 420 208 419 208

L419 208

L419 208

Z

M328 152

L327 150

L329 151

C330 152 331 153 331 154

L331 154

L331 154

C330 154 329 153 328 152

Z

M396 140

C398 140 402 140 404 140

L408 141

L400 141

L392 141

L396 140

Z

M596 140

C598 140 602 140 604 140

L608 141

L600 141

L592 141

L596 140

Z

M557 76

L555 74

L557 76

C559 77 560 78 560 79

L560 79

L560 79

C559 79 558 78 557 76

Z

M577 65

C577 64 579 63 579 63

L579 63

L578 65

C577 66 575 67 575 67

L575 67

L577 65

Z

M567 60

C570 57 573 54 573 54

L573 54

L568 60

C564 63 561 66 561 66

L561 66

L567 60

Z

"/>

<path fill="#7f7f7f" stroke="none" d="
M362 505

L363 505

L364 505

L364 506

L362 506

L361 506

L362 505

Z

M175 488

L176 488

L177 488

L177 489

L175 489

L174 489

L175 488

Z

M230 476

C230 476 232 476 232 476

L234 477

L231 477

L229 477

L230 476

Z

M176 395

L177 395

L178 395

L178 396

L176 396

L175 396

L176 395

Z

M255 348

C257 348 259 348 261 348

L264 349

L258 349

L252 349

L255 348

Z

M396 140

C398 140 402 140 404 140

L408 141

L400 141

L392 141

L396 140

Z

M596 140

C598 140 602 140 604 140

L608 141

L600 141

L592 141

L596 140

Z

"/>

<path fill="#ffffff" stroke="none" d="
"/>

<path fill="#ffffff" stroke="none" d="
"/>

<path fill="#ffffff" stroke="none" d="
"/>

<path fill="#ffffff" stroke="none" d="
"/>

<path fill="#ffffff" stroke="none" d="
"/>

</svg>

