<?xml version="1.0" standalone="no"?>

<!DOCTYPE svg PUBLIC "-//W3C//DTD SVG 20010904//EN"

 "http://www.w3.org/TR/2001/REC-SVG-20010904/DTD/svg10.dtd">

<svg version="1.0" xmlns="http://www.w3.org/2000/svg"

 width="700.000000pt" height="601.000000pt" viewBox="0 0 700.000000 601.000000"

 preserveAspectRatio="xMidYMid meet">

<path fill="#000000" stroke="none" d="
M109 475

C95 472 84 457 84 440

C84 435 84 433 86 430

C89 424 91 424 114 423

L135 423

L135 279

C135 136 135 136 137 132

C138 130 141 127 143 126

C147 124 147 124 350 124

C554 124 554 124 557 126

C559 127 562 130 563 132

C566 136 566 136 566 279

L566 423

L586 423

C608 424 610 424 614 430

C617 435 618 441 615 449

C613 457 607 465 601 470

C591 478 611 477 349 477

C149 477 114 477 109 475

Z

M589 464

C597 460 605 448 605 440

L605 436

L350 435

L95 435

L95 440

C95 449 101 459 109 463

C112 465 120 465 349 465

C549 465 587 465 589 464

Z

M552 421

C554 420 554 406 554 279

C554 152 554 138 552 137

C551 135 531 135 350 135

C169 135 149 135 148 137

C146 138 146 152 146 279

C146 406 146 420 148 421

C149 423 169 423 350 423

C531 423 551 423 552 421

Z

M316 454

C315 453 314 451 314 450

C314 449 315 447 316 446

C318 444 319 444 350 444

C381 444 382 444 384 446

C385 447 386 449 386 450

C386 451 385 453 384 454

C382 456 381 456 350 456

C319 456 318 456 316 454

Z

M161 279

L161 150

L350 150

L539 150

L539 279

L539 408

L350 408

L161 408

L161 279

Z

M357 387

C361 384 359 377 353 377

C348 377 345 383 349 387

C351 389 354 390 357 387

Z

M303 376

C305 374 305 374 304 371

C304 370 302 368 301 367

C298 366 298 366 295 368

C292 370 291 374 294 377

C297 380 300 380 303 376

Z

M411 377

C415 374 413 366 407 366

C404 366 401 369 401 373

C401 376 404 379 407 379

C408 379 410 378 411 377

Z

M358 363

C360 360 359 356 356 354

C353 353 353 353 350 354

C347 356 346 358 347 362

C349 366 355 367 358 363

Z

M316 356

C319 350 314 344 308 347

C302 349 304 358 311 358

C313 358 314 357 316 356

Z

M399 356

C403 353 401 345 395 345

C392 345 389 348 389 352

C389 355 392 358 395 358

C396 358 398 357 399 356

Z

M357 341

C360 338 360 335 356 332

C353 329 352 329 349 332

C346 335 346 339 349 341

C352 344 355 343 357 341

Z

M327 335

C330 332 329 329 327 327

C324 324 320 324 318 327

C314 332 317 337 323 337

C325 337 326 336 327 335

Z

M388 335

C391 330 388 325 383 325

C379 325 376 328 377 333

C377 337 386 339 388 335

Z

M370 309

C380 306 388 300 397 290

C405 282 408 277 407 274

C406 270 393 258 385 254

C365 243 340 243 321 254

C313 258 303 266 300 272

C298 275 298 275 299 278

C304 287 316 300 327 306

C340 313 356 314 370 309

Z

M327 232

C331 229 329 221 323 221

C320 221 317 224 317 228

C317 230 318 231 320 232

C323 234 324 234 327 232

Z

M388 232

C388 231 389 229 389 227

C389 221 380 219 377 225

C374 231 382 236 388 232

Z

M356 226

C360 223 360 218 356 216

C353 215 353 215 350 216

C345 219 347 227 353 228

C353 228 355 227 356 226

Z

M315 211

C316 211 317 209 317 207

C317 202 312 199 307 202

C304 203 304 209 307 211

C309 213 313 214 315 211

Z

M400 211

C402 209 401 203 399 202

C396 200 394 200 391 202

C386 206 390 214 396 212

C397 212 399 211 400 211

Z

M357 203

C360 201 359 196 356 194

C353 192 353 192 350 193

C346 195 346 201 349 203

C352 205 354 205 357 203

Z

M303 190

C304 190 305 188 305 186

C305 182 303 180 299 180

C294 180 291 186 295 190

C297 192 301 193 303 190

Z

M411 190

C413 188 414 184 411 182

C409 179 404 180 402 183

C398 188 406 195 411 190

Z

M357 179

C360 176 359 172 356 170

C353 169 353 169 350 170

C345 173 347 181 353 181

C354 181 356 180 357 179

Z

M345 299

C336 297 327 291 320 284

C316 280 313 276 313 276

C313 272 328 262 336 260

L339 260

L338 262

C334 269 341 281 351 283

C361 285 371 273 368 263

L367 260

L370 260

C377 262 393 273 393 275

C393 278 383 288 377 292

C367 299 355 301 345 299

Z

"/>

<path fill="#242424" stroke="none" d="
M309 358

C309 358 311 358 311 358

L313 359

L310 359

L308 359

L309 358

Z

M322 337

L323 337

L324 337

L324 338

L322 338

L321 338

L322 337

Z

M383 337

L384 337

L385 337

L385 338

L383 338

L382 338

L383 337

Z

M395 293

C397 291 399 289 399 289

L399 289

L396 293

C393 295 391 297 391 297

L391 297

L395 293

Z

M381 289

C381 288 382 288 383 287

L385 286

L383 287

C382 288 382 289 381 289

L381 289

L381 289

Z

M322 286

L321 285

L322 286

C323 287 324 287 324 288

L324 288

L324 288

C323 288 323 287 322 286

Z

M317 281

L316 280

L317 281

C318 282 319 282 319 283

L319 283

L319 283

C318 283 318 282 317 281

Z

M387 283

C387 282 388 282 389 281

L391 280

L389 281

C388 282 388 283 387 283

L387 283

L387 283

Z

M390 273

L389 271

L391 272

C392 273 393 274 393 275

L393 275

L393 275

C392 275 391 274 390 273

Z

M304 266

C304 265 305 265 306 264

L308 263

L306 264

C305 265 305 266 304 266

L304 266

L304 266

Z

M402 190

L401 189

L402 190

C403 191 404 191 404 192

L404 192

L404 192

C403 192 403 191 402 190

Z

"/>

<path fill="#fdfdfd" stroke="none" d="
"/>

<path fill="#ffffff" stroke="none" d="
"/>

<path fill="#ffffff" stroke="none" d="
"/>

<path fill="#ffffff" stroke="none" d="
"/>

<path fill="#ffffff" stroke="none" d="
"/>

<path fill="#ffffff" stroke="none" d="
"/>

</svg>

