<?xml version="1.0" standalone="no"?>

<!DOCTYPE svg PUBLIC "-//W3C//DTD SVG 20010904//EN"

 "http://www.w3.org/TR/2001/REC-SVG-20010904/DTD/svg10.dtd">

<svg version="1.0" xmlns="http://www.w3.org/2000/svg"

 width="700.000000pt" height="604.000000pt" viewBox="0 0 700.000000 604.000000"

 preserveAspectRatio="xMidYMid meet">

<path fill="#000000" stroke="none" d="
M277 525

C273 523 240 490 238 487

C237 483 237 480 238 476

C239 475 248 466 258 456

C276 438 276 438 281 438

C287 438 290 441 292 446

C293 451 292 455 284 463

L277 470

L446 470

C633 470 621 470 625 476

C626 478 627 480 626 483

C625 489 622 492 616 493

C612 494 562 494 443 494

L276 494

L283 501

C292 509 294 513 292 517

C291 519 290 522 289 523

C286 526 279 527 277 525

Z

M122 402

C117 399 114 392 118 386

C120 382 124 380 131 380

L138 380

L138 374

L138 368

L111 368

C82 368 79 368 76 363

C74 361 74 353 74 283

C74 197 74 201 81 198

C86 196 308 196 313 198

C320 201 320 197 320 284

C320 361 320 361 316 365

C314 366 313 368 312 368

C312 368 299 368 284 368

L256 368

L256 374

L256 380

L263 380

C271 380 275 382 277 387

C278 391 278 392 276 397

C273 403 276 403 197 403

C138 403 125 403 122 402

Z

M233 374

L233 368

L197 368

L161 368

L161 374

L161 380

L197 380

L233 380

L233 374

Z

M298 282

L298 221

L197 220

L97 220

L97 282

L97 344

L198 344

L298 344

L298 282

Z

M428 401

C425 400 422 395 422 391

C422 388 425 383 428 382

C430 381 434 380 437 380

L444 380

L444 374

L444 368

L417 368

C388 368 385 368 382 363

C380 361 380 353 380 283

C380 196 380 201 387 198

C392 196 614 196 619 198

C626 201 626 197 626 283

C626 353 626 361 624 363

C621 368 618 368 589 368

L562 368

L562 374

L562 380

L569 380

C576 380 580 382 582 386

C584 390 584 393 582 397

C579 403 581 403 503 403

C440 403 431 403 428 401

Z

M539 374

L539 368

L503 368

L467 368

L467 374

L467 380

L503 380

L539 380

L539 374

Z

M603 282

L603 220

L503 220

L403 221

L402 282

L402 344

L502 344

L603 344

L603 282

Z

M412 160

C409 158 407 152 408 148

C408 147 412 142 416 138

L423 130

L254 130

C67 130 79 130 75 124

C74 122 73 120 74 117

C75 111 78 108 84 107

C88 106 138 106 257 106

L424 107

L417 99

C408 90 406 87 408 83

C410 76 416 73 422 74

C425 75 459 109 462 113

C463 117 463 120 462 124

C461 125 452 134 442 144

C424 162 424 162 419 162

C416 162 414 161 412 160

Z

"/>

<path fill="#1f1f1f" stroke="none" d="
M292 514

L292 513

L293 514

L293 515

L293 516

L292 516

L292 514

Z

M361 493

C407 493 483 493 530 493

L615 494

L446 494

L277 494

L361 493

Z

M256 458

C266 448 274 440 274 440

L274 440

L257 458

C247 467 239 475 239 475

L239 475

L256 458

Z

M119 399

L118 398

L119 399

C120 400 121 400 121 401

L121 401

L121 401

C120 401 120 400 119 399

Z

M579 401

C579 400 580 400 581 399

L583 398

L581 399

C580 400 580 401 579 401

L579 401

L579 401

Z

M274 383

L273 382

L274 383

C275 384 276 384 276 385

L276 385

L276 385

C275 385 275 384 274 383

Z

M424 385

C424 384 425 384 426 383

L428 382

L426 383

C425 384 425 385 424 385

L424 385

L424 385

Z

M96 282

L96 220

L97 282

L97 344

L198 344

L299 345

L197 345

L96 345

L96 282

Z

M502 344

L603 344

L603 282

L604 220

L604 282

L604 345

L503 345

L402 345

L502 344

Z

M76 202

C76 201 77 201 78 200

L80 199

L78 200

C77 201 77 202 76 202

L76 202

L76 202

Z

M316 200

L315 199

L316 200

C317 201 318 201 318 202

L318 202

L318 202

C317 202 317 201 316 200

Z

M382 202

C382 201 383 201 384 200

L386 199

L384 200

C383 201 383 202 382 202

L382 202

L382 202

Z

M622 200

L621 199

L622 200

C623 201 624 201 624 202

L624 202

L624 202

C623 202 623 201 622 200

Z

M443 143

C453 133 461 125 461 125

L461 125

L444 143

C434 152 426 160 426 160

L426 160

L443 143

Z

M407 151

L407 149

L408 150

C408 150 408 152 408 152

L407 154

L407 151

Z

M170 106

C216 106 292 106 339 106

L424 107

L255 107

L86 107

L170 106

Z

M407 85

L407 84

L408 85

L408 86

L408 87

L407 87

L407 85

Z

"/>

<path fill="#999999" stroke="none" d="
M361 493

C407 493 483 493 530 493

L615 494

L446 494

L277 494

L361 493

Z

M147 344

C174 344 220 344 247 344

L298 345

L197 345

L97 345

L147 344

Z

M453 344

C480 344 526 344 553 344

L604 345

L503 345

L403 345

L453 344

Z

M170 106

C216 106 292 106 339 106

L424 107

L255 107

L86 107

L170 106

Z

"/>

<path fill="#ffffff" stroke="none" d="
"/>

<path fill="#ffffff" stroke="none" d="
"/>

<path fill="#ffffff" stroke="none" d="
"/>

<path fill="#ffffff" stroke="none" d="
"/>

<path fill="#ffffff" stroke="none" d="
"/>

</svg>

