<?xml version="1.0" standalone="no"?>

<!DOCTYPE svg PUBLIC "-//W3C//DTD SVG 20010904//EN"

 "http://www.w3.org/TR/2001/REC-SVG-20010904/DTD/svg10.dtd">

<svg version="1.0" xmlns="http://www.w3.org/2000/svg"

 width="700.000000pt" height="594.000000pt" viewBox="0 0 700.000000 594.000000"

 preserveAspectRatio="xMidYMid meet">

<path fill="#000000" stroke="none" d="
M89 563

L89 557

L170 557

L251 557

L251 294

L251 31

L352 31

L452 31

L452 294

L452 557

L532 557

L611 557

L611 563

L611 569

L350 569

L89 569

L89 563

Z

M440 300

L440 43

L351 43

L262 43

L262 300

L262 557

L351 557

L440 557

L440 300

Z

M89 510

L89 508

L94 508

L99 508

L98 510

L98 512

L93 512

L89 512

L89 510

Z

M110 510

L110 508

L116 508

L122 508

L122 510

L122 512

L116 512

L110 512

L110 510

Z

M134 510

L134 508

L140 508

L146 508

L146 510

L146 512

L140 512

L134 512

L134 510

Z

M158 510

L158 508

L164 508

L170 508

L170 510

L170 512

L164 512

L158 512

L158 510

Z

M182 510

L182 508

L188 508

L194 508

L194 510

L194 512

L188 512

L182 512

L182 510

Z

M206 510

L206 508

L212 508

L218 508

L218 510

L218 512

L212 512

L206 512

L206 510

Z

M230 510

L230 508

L236 508

L242 508

L242 510

L242 512

L236 512

L230 512

L230 510

Z

M458 510

L458 508

L463 508

L468 508

L468 510

L468 512

L463 512

L458 512

L458 510

Z

M480 510

L480 508

L486 508

L492 508

L491 510

L491 512

L485 512

L480 512

L480 510

Z

M504 510

L504 508

L510 508

L516 508

L515 510

L515 512

L509 512

L504 512

L504 510

Z

M528 510

L528 508

L534 508

L540 508

L539 510

L539 512

L533 512

L528 512

L528 510

Z

M552 510

L552 508

L558 508

L564 508

L563 510

L563 512

L557 512

L552 512

L552 510

Z

M576 510

L576 508

L582 508

L588 508

L587 510

L587 512

L581 512

L576 512

L576 510

Z

M600 510

L600 508

L606 508

L612 508

L611 510

L611 512

L605 512

L600 512

L600 510

Z

M89 458

L89 456

L94 456

L98 456

L98 458

L98 459

L94 459

L89 459

L89 458

Z

M110 458

L110 456

L116 456

L122 456

L122 458

L122 459

L116 459

L110 459

L110 458

Z

M134 458

L134 456

L140 456

L146 456

L146 458

L146 459

L140 459

L134 459

L134 458

Z

M158 458

L158 456

L164 456

L170 456

L170 458

L170 459

L164 459

L158 459

L158 458

Z

M182 458

L182 456

L188 456

L194 456

L194 458

L194 459

L188 459

L182 459

L182 458

Z

M206 458

L206 456

L212 456

L218 456

L218 458

L218 459

L212 459

L206 459

L206 458

Z

M230 458

L230 456

L236 456

L242 456

L242 458

L242 459

L236 459

L230 459

L230 458

Z

M458 458

L458 456

L463 456

L468 456

L468 458

L468 459

L463 459

L458 459

L458 458

Z

M480 458

L480 456

L486 456

L491 456

L491 458

L491 459

L486 459

L480 459

L480 458

Z

M504 458

L504 456

L510 456

L515 456

L515 458

L515 459

L510 459

L504 459

L504 458

Z

M528 458

L528 456

L534 456

L539 456

L539 458

L539 459

L534 459

L528 459

L528 458

Z

M552 458

L552 456

L558 456

L563 456

L563 458

L563 459

L558 459

L552 459

L552 458

Z

M576 458

L576 456

L582 456

L587 456

L587 458

L587 459

L582 459

L576 459

L576 458

Z

M600 458

L600 456

L606 456

L611 456

L611 458

L611 459

L606 459

L600 459

L600 458

Z

M89 405

L89 403

L94 403

L99 403

L98 405

L98 407

L93 407

L89 407

L89 405

Z

M110 405

L110 403

L116 403

L122 403

L122 405

L122 407

L116 407

L110 407

L110 405

Z

M134 405

L134 403

L140 403

L146 403

L146 405

L146 407

L140 407

L134 407

L134 405

Z

M158 405

L158 403

L164 403

L170 403

L170 405

L170 407

L164 407

L158 407

L158 405

Z

M182 405

L182 403

L188 403

L194 403

L194 405

L194 407

L188 407

L182 407

L182 405

Z

M206 405

L206 403

L212 403

L218 403

L218 405

L218 407

L212 407

L206 407

L206 405

Z

M230 405

L230 403

L236 403

L242 403

L242 405

L242 407

L236 407

L230 407

L230 405

Z

M458 405

L458 403

L463 403

L468 403

L468 405

L468 407

L463 407

L458 407

L458 405

Z

M480 405

L480 403

L486 403

L492 403

L491 405

L491 407

L485 407

L480 407

L480 405

Z

M504 405

L504 403

L510 403

L516 403

L515 405

L515 407

L509 407

L504 407

L504 405

Z

M528 405

L528 403

L534 403

L540 403

L539 405

L539 407

L533 407

L528 407

L528 405

Z

M552 405

L552 403

L558 403

L564 403

L563 405

L563 407

L557 407

L552 407

L552 405

Z

M576 405

L576 403

L582 403

L588 403

L587 405

L587 407

L581 407

L576 407

L576 405

Z

M600 405

L600 403

L606 403

L612 403

L611 405

L611 407

L605 407

L600 407

L600 405

Z

M89 353

L89 351

L94 351

L98 351

L98 353

L98 354

L94 354

L89 354

L89 353

Z

M110 353

L110 351

L116 351

L122 351

L122 353

L122 354

L116 354

L110 354

L110 353

Z

M134 353

L134 351

L140 351

L146 351

L146 353

L146 354

L140 354

L134 354

L134 353

Z

M158 353

L158 351

L164 351

L170 351

L170 353

L170 354

L164 354

L158 354

L158 353

Z

M182 353

L182 351

L188 351

L194 351

L194 353

L194 354

L188 354

L182 354

L182 353

Z

M206 353

L206 351

L212 351

L218 351

L218 353

L218 354

L212 354

L206 354

L206 353

Z

M230 353

L230 351

L236 351

L242 351

L242 353

L242 354

L236 354

L230 354

L230 353

Z

M458 353

L458 351

L463 351

L468 351

L468 353

L468 354

L463 354

L458 354

L458 353

Z

M480 353

L480 351

L486 351

L491 351

L491 353

L491 354

L486 354

L480 354

L480 353

Z

M504 353

L504 351

L510 351

L515 351

L515 353

L515 354

L510 354

L504 354

L504 353

Z

M528 353

L528 351

L534 351

L539 351

L539 353

L539 354

L534 354

L528 354

L528 353

Z

M552 353

L552 351

L558 351

L563 351

L563 353

L563 354

L558 354

L552 354

L552 353

Z

M576 353

L576 351

L582 351

L587 351

L587 353

L587 354

L582 354

L576 354

L576 353

Z

M600 353

L600 351

L606 351

L611 351

L611 353

L611 354

L606 354

L600 354

L600 353

Z

M89 300

L89 298

L93 298

L98 298

L98 300

L99 302

L94 302

L89 302

L89 300

Z

M110 300

L110 298

L116 298

L122 298

L122 300

L122 302

L116 302

L110 302

L110 300

Z

M134 300

L134 298

L140 298

L146 298

L146 300

L146 302

L140 302

L134 302

L134 300

Z

M158 300

L158 298

L164 298

L170 298

L170 300

L170 302

L164 302

L158 302

L158 300

Z

M182 300

L182 298

L188 298

L194 298

L194 300

L194 302

L188 302

L182 302

L182 300

Z

M206 300

L206 298

L212 298

L218 298

L218 300

L218 302

L212 302

L206 302

L206 300

Z

M230 300

L230 298

L236 298

L242 298

L242 300

L242 302

L236 302

L230 302

L230 300

Z

M458 300

L458 298

L463 298

L468 298

L468 300

L468 302

L463 302

L458 302

L458 300

Z

M480 300

L480 298

L485 298

L491 298

L491 300

L492 302

L486 302

L480 302

L480 300

Z

M504 300

L504 298

L509 298

L515 298

L515 300

L516 302

L510 302

L504 302

L504 300

Z

M528 300

L528 298

L533 298

L539 298

L539 300

L540 302

L534 302

L528 302

L528 300

Z

M552 300

L552 298

L557 298

L563 298

L563 300

L564 302

L558 302

L552 302

L552 300

Z

M576 300

L576 298

L581 298

L587 298

L587 300

L588 302

L582 302

L576 302

L576 300

Z

M600 300

L600 298

L605 298

L611 298

L611 300

L612 302

L606 302

L600 302

L600 300

Z

M89 248

L89 246

L94 246

L98 246

L98 248

L98 249

L94 249

L89 249

L89 248

Z

M110 248

L110 246

L116 246

L122 246

L122 248

L122 249

L116 249

L110 249

L110 248

Z

M134 248

L134 246

L140 246

L146 246

L146 248

L146 249

L140 249

L134 249

L134 248

Z

M158 248

L158 246

L164 246

L170 246

L170 248

L170 249

L164 249

L158 249

L158 248

Z

M182 248

L182 246

L188 246

L194 246

L194 248

L194 249

L188 249

L182 249

L182 248

Z

M206 248

L206 246

L212 246

L218 246

L218 248

L218 249

L212 249

L206 249

L206 248

Z

M230 248

L230 246

L236 246

L242 246

L242 248

L242 249

L236 249

L230 249

L230 248

Z

M458 248

L458 246

L463 246

L468 246

L468 248

L468 249

L463 249

L458 249

L458 248

Z

M480 248

L480 246

L486 246

L491 246

L491 248

L491 249

L486 249

L480 249

L480 248

Z

M504 248

L504 246

L510 246

L515 246

L515 248

L515 249

L510 249

L504 249

L504 248

Z

M528 248

L528 246

L534 246

L539 246

L539 248

L539 249

L534 249

L528 249

L528 248

Z

M552 248

L552 246

L558 246

L563 246

L563 248

L563 249

L558 249

L552 249

L552 248

Z

M576 248

L576 246

L582 246

L587 246

L587 248

L587 249

L582 249

L576 249

L576 248

Z

M600 248

L600 246

L606 246

L611 246

L611 248

L611 249

L606 249

L600 249

L600 248

Z

M89 195

L89 193

L93 193

L98 193

L98 195

L99 197

L94 197

L89 197

L89 195

Z

M110 195

L110 193

L116 193

L122 193

L122 195

L122 197

L116 197

L110 197

L110 195

Z

M134 195

L134 193

L140 193

L146 193

L146 195

L146 197

L140 197

L134 197

L134 195

Z

M158 195

L158 193

L164 193

L170 193

L170 195

L170 197

L164 197

L158 197

L158 195

Z

M182 195

L182 193

L188 193

L194 193

L194 195

L194 197

L188 197

L182 197

L182 195

Z

M206 195

L206 193

L212 193

L218 193

L218 195

L218 197

L212 197

L206 197

L206 195

Z

M230 195

L230 193

L236 193

L242 193

L242 195

L242 197

L236 197

L230 197

L230 195

Z

M458 195

L458 193

L463 193

L468 193

L468 195

L468 197

L463 197

L458 197

L458 195

Z

M480 195

L480 193

L485 193

L491 193

L491 195

L492 197

L486 197

L480 197

L480 195

Z

M504 195

L504 193

L509 193

L515 193

L515 195

L516 197

L510 197

L504 197

L504 195

Z

M528 195

L528 193

L533 193

L539 193

L539 195

L540 197

L534 197

L528 197

L528 195

Z

M552 195

L552 193

L557 193

L563 193

L563 195

L564 197

L558 197

L552 197

L552 195

Z

M576 195

L576 193

L581 193

L587 193

L587 195

L588 197

L582 197

L576 197

L576 195

Z

M600 195

L600 193

L605 193

L611 193

L611 195

L612 197

L606 197

L600 197

L600 195

Z

M89 143

L89 141

L94 141

L98 141

L98 143

L98 144

L94 144

L89 144

L89 143

Z

M110 143

L110 141

L116 141

L122 141

L122 143

L122 144

L116 144

L110 144

L110 143

Z

M134 143

L134 141

L140 141

L146 141

L146 143

L146 144

L140 144

L134 144

L134 143

Z

M158 143

L158 141

L164 141

L170 141

L170 143

L170 144

L164 144

L158 144

L158 143

Z

M182 143

L182 141

L188 141

L194 141

L194 143

L194 144

L188 144

L182 144

L182 143

Z

M206 143

L206 141

L212 141

L218 141

L218 143

L218 144

L212 144

L206 144

L206 143

Z

M230 143

L230 141

L236 141

L242 141

L242 143

L242 144

L236 144

L230 144

L230 143

Z

M458 143

L458 141

L463 141

L468 141

L468 143

L468 144

L463 144

L458 144

L458 143

Z

M480 143

L480 141

L486 141

L491 141

L491 143

L491 144

L486 144

L480 144

L480 143

Z

M504 143

L504 141

L510 141

L515 141

L515 143

L515 144

L510 144

L504 144

L504 143

Z

M528 143

L528 141

L534 141

L539 141

L539 143

L539 144

L534 144

L528 144

L528 143

Z

M552 143

L552 141

L558 141

L563 141

L563 143

L563 144

L558 144

L552 144

L552 143

Z

M576 143

L576 141

L582 141

L587 141

L587 143

L587 144

L582 144

L576 144

L576 143

Z

M600 143

L600 141

L606 141

L611 141

L611 143

L611 144

L606 144

L600 144

L600 143

Z

M89 90

L89 88

L93 88

L98 88

L98 90

L99 92

L94 92

L89 92

L89 90

Z

M110 90

L110 88

L116 88

L122 88

L122 90

L122 92

L116 92

L110 92

L110 90

Z

M134 90

L134 88

L140 88

L146 88

L146 90

L146 92

L140 92

L134 92

L134 90

Z

M158 90

L158 88

L164 88

L170 88

L170 90

L170 92

L164 92

L158 92

L158 90

Z

M182 90

L182 88

L188 88

L194 88

L194 90

L194 92

L188 92

L182 92

L182 90

Z

M206 90

L206 88

L212 88

L218 88

L218 90

L218 92

L212 92

L206 92

L206 90

Z

M230 90

L230 88

L236 88

L242 88

L242 90

L242 92

L236 92

L230 92

L230 90

Z

M458 90

L458 88

L463 88

L468 88

L468 90

L468 92

L463 92

L458 92

L458 90

Z

M480 90

L480 88

L485 88

L491 88

L491 90

L492 92

L486 92

L480 92

L480 90

Z

M504 90

L504 88

L509 88

L515 88

L515 90

L516 92

L510 92

L504 92

L504 90

Z

M528 90

L528 88

L533 88

L539 88

L539 90

L540 92

L534 92

L528 92

L528 90

Z

M552 90

L552 88

L557 88

L563 88

L563 90

L564 92

L558 92

L552 92

L552 90

Z

M576 90

L576 88

L581 88

L587 88

L587 90

L588 92

L582 92

L576 92

L576 90

Z

M600 90

L600 88

L605 88

L611 88

L611 90

L612 92

L606 92

L600 92

L600 90

Z

M89 38

L89 36

L94 36

L98 36

L98 38

L98 39

L94 39

L89 39

L89 38

Z

M110 38

L110 36

L116 36

L122 36

L122 38

L122 39

L116 39

L110 39

L110 38

Z

M134 38

L134 36

L140 36

L146 36

L146 38

L146 39

L140 39

L134 39

L134 38

Z

M158 38

L158 36

L164 36

L170 36

L170 38

L170 39

L164 39

L158 39

L158 38

Z

M182 38

L182 36

L188 36

L194 36

L194 38

L194 39

L188 39

L182 39

L182 38

Z

M206 38

L206 36

L212 36

L218 36

L218 38

L218 39

L212 39

L206 39

L206 38

Z

M230 38

L230 36

L236 36

L242 36

L242 38

L242 39

L236 39

L230 39

L230 38

Z

M458 38

L458 36

L463 36

L468 36

L468 38

L468 39

L463 39

L458 39

L458 38

Z

M480 38

L480 36

L486 36

L491 36

L491 38

L491 39

L486 39

L480 39

L480 38

Z

M504 38

L504 36

L510 36

L515 36

L515 38

L515 39

L510 39

L504 39

L504 38

Z

M528 38

L528 36

L534 36

L539 36

L539 38

L539 39

L534 39

L528 39

L528 38

Z

M552 38

L552 36

L558 36

L563 36

L563 38

L563 39

L558 39

L552 39

L552 38

Z

M576 38

L576 36

L582 36

L587 36

L587 38

L587 39

L582 39

L576 39

L576 38

Z

M600 38

L600 36

L606 36

L611 36

L611 38

L611 39

L606 39

L600 39

L600 38

Z

"/>

<path fill="#323232" stroke="none" d="
M218 568

C290 568 408 568 480 568

L612 569

L350 569

L88 569

L218 568

Z

M91 508

C93 508 95 508 97 508

L100 509

L94 509

L89 509

L91 508

Z

M113 508

C115 508 117 508 119 508

L123 509

L116 509

L110 509

L113 508

Z

M137 508

C139 508 141 508 143 508

L147 509

L140 509

L134 509

L137 508

Z

M161 508

C163 508 165 508 167 508

L171 509

L164 509

L158 509

L161 508

Z

M185 508

C187 508 189 508 191 508

L195 509

L188 509

L182 509

L185 508

Z

M209 508

C211 508 213 508 215 508

L219 509

L212 509

L206 509

L209 508

Z

M233 508

C235 508 237 508 239 508

L243 509

L236 509

L230 509

L233 508

Z

M460 508

C462 508 464 508 466 508

L469 509

L463 509

L458 509

L460 508

Z

M483 508

C485 508 487 508 489 508

L493 509

L486 509

L480 509

L483 508

Z

M507 508

C509 508 511 508 513 508

L517 509

L510 509

L504 509

L507 508

Z

M531 508

C533 508 535 508 537 508

L541 509

L534 509

L528 509

L531 508

Z

M555 508

C557 508 559 508 561 508

L565 509

L558 509

L552 509

L555 508

Z

M579 508

C581 508 583 508 585 508

L589 509

L582 509

L576 509

L579 508

Z

M603 508

C605 508 607 508 609 508

L613 509

L606 509

L600 509

L603 508

Z

M91 403

C93 403 95 403 97 403

L100 404

L94 404

L89 404

L91 403

Z

M113 403

C115 403 117 403 119 403

L123 404

L116 404

L110 404

L113 403

Z

M137 403

C139 403 141 403 143 403

L147 404

L140 404

L134 404

L137 403

Z

M161 403

C163 403 165 403 167 403

L171 404

L164 404

L158 404

L161 403

Z

M185 403

C187 403 189 403 191 403

L195 404

L188 404

L182 404

L185 403

Z

M209 403

C211 403 213 403 215 403

L219 404

L212 404

L206 404

L209 403

Z

M233 403

C235 403 237 403 239 403

L243 404

L236 404

L230 404

L233 403

Z

M460 403

C462 403 464 403 466 403

L469 404

L463 404

L458 404

L460 403

Z

M483 403

C485 403 487 403 489 403

L493 404

L486 404

L480 404

L483 403

Z

M507 403

C509 403 511 403 513 403

L517 404

L510 404

L504 404

L507 403

Z

M531 403

C533 403 535 403 537 403

L541 404

L534 404

L528 404

L531 403

Z

M555 403

C557 403 559 403 561 403

L565 404

L558 404

L552 404

L555 403

Z

M579 403

C581 403 583 403 585 403

L589 404

L582 404

L576 404

L579 403

Z

M603 403

C605 403 607 403 609 403

L613 404

L606 404

L600 404

L603 403

Z

M91 301

C93 301 95 301 97 301

L100 302

L94 302

L89 302

L91 301

Z

M113 301

C115 301 117 301 119 301

L123 302

L116 302

L110 302

L113 301

Z

M137 301

C139 301 141 301 143 301

L147 302

L140 302

L134 302

L137 301

Z

M161 301

C163 301 165 301 167 301

L171 302

L164 302

L158 302

L161 301

Z

M185 301

C187 301 189 301 191 301

L195 302

L188 302

L182 302

L185 301

Z

M209 301

C211 301 213 301 215 301

L219 302

L212 302

L206 302

L209 301

Z

M233 301

C235 301 237 301 239 301

L243 302

L236 302

L230 302

L233 301

Z

M460 301

C462 301 464 301 466 301

L469 302

L463 302

L458 302

L460 301

Z

M483 301

C485 301 487 301 489 301

L493 302

L486 302

L480 302

L483 301

Z

M507 301

C509 301 511 301 513 301

L517 302

L510 302

L504 302

L507 301

Z

M531 301

C533 301 535 301 537 301

L541 302

L534 302

L528 302

L531 301

Z

M555 301

C557 301 559 301 561 301

L565 302

L558 302

L552 302

L555 301

Z

M579 301

C581 301 583 301 585 301

L589 302

L582 302

L576 302

L579 301

Z

M603 301

C605 301 607 301 609 301

L613 302

L606 302

L600 302

L603 301

Z

M91 196

C93 196 95 196 97 196

L100 197

L94 197

L89 197

L91 196

Z

M113 196

C115 196 117 196 119 196

L123 197

L116 197

L110 197

L113 196

Z

M137 196

C139 196 141 196 143 196

L147 197

L140 197

L134 197

L137 196

Z

M161 196

C163 196 165 196 167 196

L171 197

L164 197

L158 197

L161 196

Z

M185 196

C187 196 189 196 191 196

L195 197

L188 197

L182 197

L185 196

Z

M209 196

C211 196 213 196 215 196

L219 197

L212 197

L206 197

L209 196

Z

M233 196

C235 196 237 196 239 196

L243 197

L236 197

L230 197

L233 196

Z

M460 196

C462 196 464 196 466 196

L469 197

L463 197

L458 197

L460 196

Z

M483 196

C485 196 487 196 489 196

L493 197

L486 197

L480 197

L483 196

Z

M507 196

C509 196 511 196 513 196

L517 197

L510 197

L504 197

L507 196

Z

M531 196

C533 196 535 196 537 196

L541 197

L534 197

L528 197

L531 196

Z

M555 196

C557 196 559 196 561 196

L565 197

L558 197

L552 197

L555 196

Z

M579 196

C581 196 583 196 585 196

L589 197

L582 197

L576 197

L579 196

Z

M603 196

C605 196 607 196 609 196

L613 197

L606 197

L600 197

L603 196

Z

M91 91

C93 91 95 91 97 91

L100 92

L94 92

L89 92

L91 91

Z

M113 91

C115 91 117 91 119 91

L123 92

L116 92

L110 92

L113 91

Z

M137 91

C139 91 141 91 143 91

L147 92

L140 92

L134 92

L137 91

Z

M161 91

C163 91 165 91 167 91

L171 92

L164 92

L158 92

L161 91

Z

M185 91

C187 91 189 91 191 91

L195 92

L188 92

L182 92

L185 91

Z

M209 91

C211 91 213 91 215 91

L219 92

L212 92

L206 92

L209 91

Z

M233 91

C235 91 237 91 239 91

L243 92

L236 92

L230 92

L233 91

Z

M460 91

C462 91 464 91 466 91

L469 92

L463 92

L458 92

L460 91

Z

M483 91

C485 91 487 91 489 91

L493 92

L486 92

L480 92

L483 91

Z

M507 91

C509 91 511 91 513 91

L517 92

L510 92

L504 92

L507 91

Z

M531 91

C533 91 535 91 537 91

L541 92

L534 92

L528 92

L531 91

Z

M555 91

C557 91 559 91 561 91

L565 92

L558 92

L552 92

L555 91

Z

M579 91

C581 91 583 91 585 91

L589 92

L582 92

L576 92

L579 91

Z

M603 91

C605 91 607 91 609 91

L613 92

L606 92

L600 92

L603 91

Z

M301 31

C329 31 375 31 402 31

L453 32

L352 32

L251 32

L301 31

Z

"/>

<path fill="#848484" stroke="none" d="
"/>

<path fill="#ffffff" stroke="none" d="
"/>

<path fill="#ffffff" stroke="none" d="
"/>

<path fill="#ffffff" stroke="none" d="
"/>

<path fill="#ffffff" stroke="none" d="
"/>

<path fill="#ffffff" stroke="none" d="
"/>

</svg>

