<?xml version="1.0" standalone="no"?>

<!DOCTYPE svg PUBLIC "-//W3C//DTD SVG 20010904//EN"

 "http://www.w3.org/TR/2001/REC-SVG-20010904/DTD/svg10.dtd">

<svg version="1.0" xmlns="http://www.w3.org/2000/svg"

 width="1160.000000pt" height="305.000000pt" viewBox="0 0 1160.000000 305.000000"

 preserveAspectRatio="xMidYMid meet">

<path fill="#000000" stroke="none" d="
M1026 294

C1010 292 999 288 992 281

C989 278 988 276 987 271

C985 262 987 254 994 247

C1009 233 1035 239 1035 257

L1035 261

L1032 262

C1025 265 1020 274 1021 281

C1023 288 1031 293 1044 293

C1054 293 1061 290 1066 285

C1072 278 1074 269 1079 240

C1082 225 1085 209 1085 205

C1086 201 1087 197 1087 197

L1086 197

L1082 204

C1077 212 1068 223 1061 227

C1050 234 1035 236 1022 232

C1000 225 989 205 990 176

C991 160 994 150 1000 138

C1009 119 1023 104 1039 93

C1054 84 1067 80 1085 80

C1096 80 1096 80 1113 86

C1125 90 1132 92 1135 92

C1140 92 1146 89 1151 85

L1155 82

L1155 87

C1153 95 1153 97 1152 104

C1151 108 1151 112 1150 114

C1149 125 1132 232 1130 238

C1128 249 1121 262 1113 270

C1101 282 1088 289 1069 292

C1060 294 1037 295 1026 294

Z

M1069 216

C1074 213 1078 208 1083 200

C1086 194 1087 192 1090 173

C1092 161 1093 150 1094 149

C1094 147 1095 140 1096 134

C1097 128 1098 122 1098 121

C1098 120 1098 117 1099 113

C1100 104 1100 90 1099 87

C1098 85 1096 83 1094 83

C1084 77 1072 86 1062 106

C1045 142 1037 201 1049 216

C1051 219 1057 221 1062 220

C1064 220 1067 218 1069 216

Z

M200 236

C198 234 190 222 181 211

C173 199 166 189 166 189

L165 189

L165 188

C165 187 152 169 151 168

L150 168

L150 167

C150 166 123 128 122 127

C122 127 121 126 121 125

C121 125 111 110 99 93

L77 62

L76 62

C76 63 66 121 65 129

C65 131 65 135 64 138

C63 141 63 145 63 147

C62 149 61 155 61 160

C60 165 59 176 58 183

C57 196 57 198 58 205

C60 213 62 217 65 221

C70 225 81 230 89 230

L93 230

L93 232

L93 233

L49 233

L5 233

L5 232

L5 231

L11 230

C20 229 25 228 30 224

C35 221 43 212 46 205

C50 198 56 172 58 158

C59 155 61 140 64 123

C71 82 71 82 72 65

C72 52 71 47 65 41

C59 36 55 34 42 33

L36 33

L36 31

L36 30

L82 30

C129 30 129 30 135 39

C138 44 141 48 141 48

L142 48

L142 49

C142 50 189 117 190 118

C190 118 191 119 191 120

C191 120 197 128 203 137

L215 154

L215 153

C215 153 215 152 216 150

C216 148 218 137 219 125

C226 81 227 71 225 58

C224 50 221 45 216 41

C211 36 205 34 197 33

L190 33

L191 31

L191 30

L235 30

L279 30

L279 32

L279 33

L275 33

C266 33 252 39 246 45

C238 53 230 75 228 91

C227 93 227 95 227 96

C226 97 209 208 206 223

C206 225 205 230 205 234

L204 241

L200 236

Z

M446 234

C437 231 431 226 427 219

C424 211 424 204 434 143

C439 112 443 86 443 85

L443 83

L432 83

L422 83

L423 82

C423 81 428 81 435 81

C453 81 468 78 480 72

C484 70 486 68 489 64

C493 56 499 42 501 32

L502 24

L503 24

L504 24

L504 27

C503 28 501 40 499 53

C498 65 496 77 495 78

L495 81

L510 81

L526 81

L526 82

L526 83

L511 83

L495 83

L495 85

C494 89 492 99 491 104

C491 106 488 128 483 152

C474 209 473 215 478 220

C485 227 496 217 502 198

L502 197

L503 198

L504 199

L503 200

C502 201 502 202 502 203

C502 205 497 215 493 219

C488 225 479 231 471 233

C464 235 452 236 446 234

Z

M639 234

C631 231 623 224 621 216

C619 209 619 201 623 178

C625 167 626 157 626 155

C627 153 628 143 630 133

C634 108 634 102 631 98

C622 90 609 101 592 131

C586 141 586 141 579 183

C576 206 573 226 573 228

L572 232

L556 232

C548 232 536 232 531 233

C525 234 521 234 521 234

C520 234 525 205 530 171

C535 137 540 107 540 105

C541 102 543 86 546 69

C549 52 551 35 551 31

C551 25 551 24 548 22

C545 19 542 19 535 24

C531 25 528 27 527 27

L527 27

L527 26

C527 26 531 23 535 20

C540 18 544 15 544 15

L545 14

L545 14

L545 15

L551 12

C561 7 569 6 581 6

C589 6 591 6 595 8

C601 11 604 17 604 25

C604 29 588 126 586 134

L586 136

L587 136

C588 135 589 133 591 130

C599 113 615 95 627 88

C646 77 670 77 679 88

C686 97 686 104 677 159

C669 208 668 216 670 219

C673 223 677 223 682 218

C687 214 693 203 693 200

C693 199 693 198 694 197

L695 197

L694 201

C692 214 677 229 661 234

C655 235 644 235 639 234

Z

M732 233

C726 231 720 226 717 220

C713 213 713 204 716 185

C718 176 719 167 719 165

C720 163 722 150 724 136

C728 110 728 104 727 100

C725 96 718 96 710 100

L704 104

L704 103

L703 102

L708 99

C725 89 726 88 740 82

C742 81 743 81 751 80

C771 77 781 86 780 105

C779 109 776 133 772 159

C767 185 764 208 764 212

C764 222 769 225 777 218

C781 215 788 202 788 199

L788 197

L789 197

L790 197

L789 200

C786 214 773 228 757 233

C749 235 738 236 732 233

Z

M805 234

L804 233

L805 226

C805 222 806 217 806 215

C807 213 811 188 815 160

C820 130 823 107 823 105

C822 96 815 94 805 100

L799 104

L799 103

L798 102

L804 98

C820 88 837 82 852 82

C860 82 862 82 866 84

C868 85 871 88 872 89

C876 94 876 105 873 121

C871 129 870 136 870 136

L871 136

L873 131

C878 123 888 109 894 102

C908 87 922 80 939 80

C950 80 954 81 960 86

C963 88 964 90 966 96

C969 105 969 106 959 164

C952 213 951 217 955 220

C957 223 961 222 964 220

C968 217 974 207 976 202

L977 197

L978 197

L979 197

L977 202

C976 208 970 219 967 221

C966 222 964 223 963 224

C961 226 958 228 953 230

C933 240 910 234 905 217

C902 210 903 202 909 160

C917 111 918 106 915 101

C912 94 904 95 895 103

C889 110 883 118 875 131

C870 141 870 141 862 186

C856 229 854 234 852 232

C850 231 813 232 809 234

C807 234 806 234 805 234

Z

M297 234

C297 233 294 233 292 233

C274 231 255 217 247 202

C236 179 240 143 255 120

C274 92 306 77 342 79

C368 81 389 93 398 112

C402 120 405 132 405 141

C405 149 403 164 401 172

C400 172 400 174 399 175

C399 176 396 182 394 187

C390 195 387 199 380 206

C369 217 368 218 356 224

C341 231 333 233 314 234

C305 234 297 234 297 234

Z

M321 229

C336 220 346 188 351 138

C355 104 352 87 343 83

C331 77 319 85 310 104

C306 112 301 130 300 140

C299 142 298 147 298 152

C293 177 292 211 295 221

C299 232 310 236 321 229

Z

M754 66

C742 63 734 52 735 38

C736 28 740 20 749 13

C754 9 754 9 756 8

C757 8 760 7 763 6

C780 2 795 13 795 31

C795 40 792 48 786 54

C777 64 764 68 754 66

Z

"/>

<path fill="#242424" stroke="none" d="
M1034 294

C1034 294 1036 294 1036 294

L1038 295

L1035 295

L1033 295

L1034 294

Z

M1024 287

L1023 286

L1024 287

C1025 288 1026 288 1026 289

L1026 289

L1026 289

C1025 289 1025 288 1024 287

Z

M5 232

L4 232

L33 232

C49 232 69 232 78 232

L94 233

L49 233

C25 233 5 233 5 232

Z

M549 231

C551 231 553 231 555 231

L558 232

L552 232

L547 232

L549 231

Z

M561 231

L562 231

L563 231

L563 232

L561 232

L560 232

L561 231

Z

M727 231

L726 230

L727 231

L729 231

L729 232

L729 232

L728 232

C728 232 727 232 727 231

Z

M833 231

C835 231 837 231 839 231

L842 232

L836 232

L830 232

L833 231

Z

M844 231

L845 231

L846 231

L846 232

L844 232

L843 232

L844 231

Z

M912 228

L911 227

L912 228

C913 229 914 229 914 230

L914 230

L914 230

C913 230 913 229 912 228

Z

M1004 222

L1003 220

L1005 221

C1006 222 1007 223 1007 224

L1007 224

L1007 224

C1006 224 1005 223 1004 222

Z

M964 223

C964 222 965 222 966 221

L968 220

L966 221

C965 222 965 223 964 223

L964 223

L964 223

Z

M683 218

C683 217 685 216 685 216

L685 216

L684 218

C683 219 681 220 681 220

L681 220

L683 218

Z

M587 136

L587 135

L588 136

C589 136 589 136 589 136

L589 137

L588 137

L586 137

L587 136

Z

M1021 108

C1023 105 1026 103 1026 103

L1026 103

L1026 103

C1026 103 1024 106 1021 108

L1017 113

L1021 108

Z

M267 106

C267 105 269 104 269 104

L269 104

L268 106

C267 107 265 108 265 108

L265 108

L267 106

Z

M890 107

L890 105

L891 105

L891 106

L893 105

L895 104

L893 106

C892 107 891 108 891 108

L890 108

L890 107

Z

M704 103

L703 102

L704 102

L705 101

L705 103

L705 104

L704 104

C704 104 704 104 704 103

Z

M967 102

L967 101

L968 102

L968 103

L968 104

L967 104

L967 102

Z

M387 97

L384 94

L387 97

C389 99 391 101 391 101

L391 101

L391 101

C391 101 389 99 387 97

Z

M1029 100

L1029 99

L1031 99

L1032 98

L1031 99

C1031 100 1030 100 1030 100

L1029 100

L1029 100

Z

M615 97

C616 95 618 94 618 94

L618 94

L616 97

C615 98 613 99 613 99

L613 99

L615 97

Z

M1071 91

C1071 90 1072 90 1073 89

L1075 88

L1073 89

C1072 90 1072 91 1071 91

L1071 91

L1071 91

Z

M1048 88

L1049 87

L1050 87

L1050 88

L1048 88

L1047 89

L1048 88

Z

M676 85

L675 84

L676 85

C677 86 678 86 678 87

L678 87

L678 87

C677 87 677 86 676 85

Z

M510 82

L495 81

L510 81

L526 81

L526 82

L526 83

L526 83

C526 83 519 82 510 82

Z

M426 81

C428 81 430 81 432 81

L436 82

L429 82

L423 82

L426 81

Z

M327 79

C327 79 329 79 329 79

L331 80

L328 80

L326 80

L327 79

Z

M342 79

L343 79

L344 79

L344 80

L342 80

L341 80

L342 79

Z

M1082 79

L1083 79

L1084 79

L1084 80

L1082 80

L1081 80

L1082 79

Z

M742 59

L741 58

L742 59

C743 60 744 60 744 61

L744 61

L744 61

C743 61 743 60 742 59

Z

M65 42

L64 40

L66 41

C67 42 68 43 68 44

L68 44

L68 44

C67 44 66 43 65 42

Z

M551 31

L551 28

L552 29

C552 30 552 32 552 32

L551 34

L551 31

Z

M59 30

C72 30 94 30 106 30

L130 31

L83 31

L36 31

L59 30

Z

M213 30

C225 30 245 30 257 30

L280 31

L235 31

L191 31

L213 30

Z

"/>

<path fill="#b7b7b7" stroke="none" d="
M27 232

C39 232 59 232 71 232

L94 233

L49 233

L5 233

L27 232

Z

M59 30

C72 30 94 30 106 30

L130 31

L83 31

L36 31

L59 30

Z

M213 30

C225 30 245 30 257 30

L280 31

L235 31

L191 31

L213 30

Z

"/>

<path fill="#ffffff" stroke="none" d="
"/>

<path fill="#ffffff" stroke="none" d="
"/>

<path fill="#ffffff" stroke="none" d="
"/>

<path fill="#ffffff" stroke="none" d="
"/>

<path fill="#ffffff" stroke="none" d="
"/>

</svg>

