<?xml version="1.0" standalone="no"?>

<!DOCTYPE svg PUBLIC "-//W3C//DTD SVG 20010904//EN"

 "http://www.w3.org/TR/2001/REC-SVG-20010904/DTD/svg10.dtd">

<svg version="1.0" xmlns="http://www.w3.org/2000/svg"

 width="1192.000000pt" height="334.000000pt" viewBox="0 0 1192.000000 334.000000"

 preserveAspectRatio="xMidYMid meet">

<path fill="#000000" stroke="none" d="
M1043 311

C1027 309 1016 305 1009 298

C1006 295 1005 293 1004 288

C1002 279 1004 271 1011 264

C1026 250 1052 256 1052 274

L1052 278

L1049 279

C1042 282 1037 291 1038 298

C1040 305 1048 310 1061 310

C1071 310 1078 307 1083 302

C1089 295 1091 286 1096 257

C1099 242 1102 226 1102 222

C1103 218 1104 214 1104 214

L1103 214

L1099 221

C1094 229 1085 240 1078 244

C1067 251 1052 253 1039 249

C1017 242 1006 222 1007 193

C1008 177 1011 167 1017 155

C1026 136 1040 121 1056 110

C1071 101 1084 97 1102 97

C1113 97 1113 97 1130 103

C1142 107 1149 109 1152 109

C1157 109 1163 106 1168 102

L1172 99

L1172 104

C1170 112 1170 114 1169 121

C1168 125 1168 129 1167 131

C1166 142 1149 249 1147 255

C1145 266 1138 279 1130 287

C1118 299 1105 306 1086 309

C1077 311 1054 312 1043 311

Z

M1086 233

C1091 230 1095 225 1100 217

C1103 211 1104 209 1107 190

C1109 178 1110 167 1111 166

C1111 164 1112 157 1113 151

C1114 145 1115 139 1115 138

C1115 137 1115 134 1116 130

C1117 121 1117 107 1116 104

C1115 102 1113 100 1111 100

C1101 94 1089 103 1079 123

C1062 159 1054 218 1066 233

C1068 236 1074 238 1079 237

C1081 237 1084 235 1086 233

Z

M217 253

C215 251 207 239 198 228

C190 216 183 206 183 206

L182 206

L182 205

C182 204 169 186 168 185

L167 185

L167 184

C167 183 140 145 139 144

C139 144 138 143 138 142

C138 142 128 127 116 110

L94 79

L93 79

C93 80 83 138 82 146

C82 148 82 152 81 155

C80 158 80 162 80 164

C79 166 78 172 78 177

C77 182 76 193 75 200

C74 213 74 215 75 222

C77 230 79 234 82 238

C87 242 98 247 106 247

L110 247

L110 249

L110 250

L66 250

L22 250

L22 249

L22 248

L28 247

C37 246 42 245 47 241

C52 238 60 229 63 222

C67 215 73 189 75 175

C76 172 78 157 81 140

C88 99 88 99 89 82

C89 69 88 64 82 58

C76 53 72 51 59 50

L53 50

L53 48

L53 47

L99 47

C146 47 146 47 152 56

C155 61 158 65 158 65

L159 65

L159 66

C159 67 206 134 207 135

C207 135 208 136 208 137

C208 137 214 145 220 154

L232 171

L232 170

C232 170 232 169 233 167

C233 165 235 154 236 142

C243 98 244 88 242 75

C241 67 238 62 233 58

C228 53 222 51 214 50

L207 50

L208 48

L208 47

L252 47

L296 47

L296 49

L296 50

L292 50

C283 50 269 56 263 62

C255 70 247 92 245 108

C244 110 244 112 244 113

C243 114 226 225 223 240

C223 242 222 247 222 251

L221 258

L217 253

Z

M463 251

C454 248 448 243 444 236

C441 228 441 221 451 160

C456 129 460 103 460 102

L460 100

L449 100

L439 100

L440 99

C440 98 445 98 452 98

C470 98 485 95 497 89

C501 87 503 85 506 81

C510 73 516 59 518 49

L519 41

L520 41

L521 41

L521 44

C520 45 518 57 516 70

C515 82 513 94 512 95

L512 98

L527 98

L543 98

L543 99

L543 100

L528 100

L512 100

L512 102

C511 106 509 116 508 121

C508 123 505 145 500 169

C491 226 490 232 495 237

C502 244 513 234 519 215

L519 214

L520 215

L521 216

L520 217

C519 218 519 219 519 220

C519 222 514 232 510 236

C505 242 496 248 488 250

C481 252 469 253 463 251

Z

M656 251

C648 248 640 241 638 233

C636 226 636 218 640 195

C642 184 643 174 643 172

C644 170 645 160 647 150

C651 125 651 119 648 115

C639 107 626 118 609 148

C603 158 603 158 596 200

C593 223 590 243 590 245

L589 249

L573 249

C565 249 553 249 548 250

C542 251 538 251 538 251

C537 251 542 222 547 188

C552 154 557 124 557 122

C558 119 560 103 563 86

C566 69 568 52 568 48

C568 42 568 41 565 39

C562 36 559 36 552 41

C548 42 545 44 544 44

L544 44

L544 43

C544 43 548 40 552 37

C557 35 561 32 561 32

L562 31

L562 31

L562 32

L568 29

C578 24 586 23 598 23

C606 23 608 23 612 25

C618 28 621 34 621 42

C621 46 605 143 603 151

L603 153

L604 153

C605 152 606 150 608 147

C616 130 632 112 644 105

C663 94 687 94 696 105

C703 114 703 121 694 176

C686 225 685 233 687 236

C690 240 694 240 699 235

C704 231 710 220 710 217

C710 216 710 215 711 214

L712 214

L711 218

C709 231 694 246 678 251

C672 252 661 252 656 251

Z

M749 250

C743 248 737 243 734 237

C730 230 730 221 733 202

C735 193 736 184 736 182

C737 180 739 167 741 153

C745 127 745 121 744 117

C742 113 735 113 727 117

L721 121

L721 120

L720 119

L725 116

C742 106 743 105 757 99

C759 98 760 98 768 97

C788 94 798 103 797 122

C796 126 793 150 789 176

C784 202 781 225 781 229

C781 239 786 242 794 235

C798 232 805 219 805 216

L805 214

L806 214

L807 214

L806 217

C803 231 790 245 774 250

C766 252 755 253 749 250

Z

M822 251

L821 250

L822 243

C822 239 823 234 823 232

C824 230 828 205 832 177

C837 147 840 124 840 122

C839 113 832 111 822 117

L816 121

L816 120

L815 119

L821 115

C837 105 854 99 869 99

C877 99 879 99 883 101

C885 102 888 105 889 106

C893 111 893 122 890 138

C888 146 887 153 887 153

L888 153

L890 148

C895 140 905 126 911 119

C925 104 939 97 956 97

C967 97 971 98 977 103

C980 105 981 107 983 113

C986 122 986 123 976 181

C969 230 968 234 972 237

C974 240 978 239 981 237

C985 234 991 224 993 219

L994 214

L995 214

L996 214

L994 219

C993 225 987 236 984 238

C983 239 981 240 980 241

C978 243 975 245 970 247

C950 257 927 251 922 234

C919 227 920 219 926 177

C934 128 935 123 932 118

C929 111 921 112 912 120

C906 127 900 135 892 148

C887 158 887 158 879 203

C873 246 871 251 869 249

C867 248 830 249 826 251

C824 251 823 251 822 251

Z

M314 251

C314 250 311 250 309 250

C291 248 272 234 264 219

C253 196 257 160 272 137

C291 109 323 94 359 96

C385 98 406 110 415 129

C419 137 422 149 422 158

C422 166 420 181 418 189

C417 189 417 191 416 192

C416 193 413 199 411 204

C407 212 404 216 397 223

C386 234 385 235 373 241

C358 248 350 250 331 251

C322 251 314 251 314 251

Z

M338 246

C353 237 363 205 368 155

C372 121 369 104 360 100

C348 94 336 102 327 121

C323 129 318 147 317 157

C316 159 315 164 315 169

C310 194 309 228 312 238

C316 249 327 253 338 246

Z

M771 83

C759 80 751 69 752 55

C753 45 757 37 766 30

C771 26 771 26 773 25

C774 25 777 24 780 23

C797 19 812 30 812 48

C812 57 809 65 803 71

C794 81 781 85 771 83

Z

"/>

<path fill="#242424" stroke="none" d="
M1051 311

C1051 311 1053 311 1053 311

L1055 312

L1052 312

L1050 312

L1051 311

Z

M1041 304

L1040 303

L1041 304

C1042 305 1043 305 1043 306

L1043 306

L1043 306

C1042 306 1042 305 1041 304

Z

M22 249

L21 249

L50 249

C66 249 86 249 95 249

L111 250

L66 250

C42 250 22 250 22 249

Z

M566 248

C568 248 570 248 572 248

L575 249

L569 249

L564 249

L566 248

Z

M578 248

L579 248

L580 248

L580 249

L578 249

L577 249

L578 248

Z

M744 248

L743 247

L744 248

L746 248

L746 249

L746 249

L745 249

C745 249 744 249 744 248

Z

M850 248

C852 248 854 248 856 248

L859 249

L853 249

L847 249

L850 248

Z

M861 248

L862 248

L863 248

L863 249

L861 249

L860 249

L861 248

Z

M929 245

L928 244

L929 245

C930 246 931 246 931 247

L931 247

L931 247

C930 247 930 246 929 245

Z

M1021 239

L1020 237

L1022 238

C1023 239 1024 240 1024 241

L1024 241

L1024 241

C1023 241 1022 240 1021 239

Z

M981 240

C981 239 982 239 983 238

L985 237

L983 238

C982 239 982 240 981 240

L981 240

L981 240

Z

M700 235

C700 234 702 233 702 233

L702 233

L701 235

C700 236 698 237 698 237

L698 237

L700 235

Z

M604 153

L604 152

L605 153

C606 153 606 153 606 153

L606 154

L605 154

L603 154

L604 153

Z

M1038 125

C1040 122 1043 120 1043 120

L1043 120

L1043 120

C1043 120 1041 123 1038 125

L1034 130

L1038 125

Z

M284 123

C284 122 286 121 286 121

L286 121

L285 123

C284 124 282 125 282 125

L282 125

L284 123

Z

M907 124

L907 122

L908 122

L908 123

L910 122

L912 121

L910 123

C909 124 908 125 908 125

L907 125

L907 124

Z

M721 120

L720 119

L721 119

L722 118

L722 120

L722 121

L721 121

C721 121 721 121 721 120

Z

M984 119

L984 118

L985 119

L985 120

L985 121

L984 121

L984 119

Z

M404 114

L401 111

L404 114

C406 116 408 118 408 118

L408 118

L408 118

C408 118 406 116 404 114

Z

M1046 117

L1046 116

L1048 116

L1049 115

L1048 116

C1048 117 1047 117 1047 117

L1046 117

L1046 117

Z

M632 114

C633 112 635 111 635 111

L635 111

L633 114

C632 115 630 116 630 116

L630 116

L632 114

Z

M1088 108

C1088 107 1089 107 1090 106

L1092 105

L1090 106

C1089 107 1089 108 1088 108

L1088 108

L1088 108

Z

M1065 105

L1066 104

L1067 104

L1067 105

L1065 105

L1064 106

L1065 105

Z

M693 102

L692 101

L693 102

C694 103 695 103 695 104

L695 104

L695 104

C694 104 694 103 693 102

Z

M527 99

L512 98

L527 98

L543 98

L543 99

L543 100

L543 100

C543 100 536 99 527 99

Z

M443 98

C445 98 447 98 449 98

L453 99

L446 99

L440 99

L443 98

Z

M344 96

C344 96 346 96 346 96

L348 97

L345 97

L343 97

L344 96

Z

M359 96

L360 96

L361 96

L361 97

L359 97

L358 97

L359 96

Z

M1099 96

L1100 96

L1101 96

L1101 97

L1099 97

L1098 97

L1099 96

Z

M759 76

L758 75

L759 76

C760 77 761 77 761 78

L761 78

L761 78

C760 78 760 77 759 76

Z

M82 59

L81 57

L83 58

C84 59 85 60 85 61

L85 61

L85 61

C84 61 83 60 82 59

Z

M568 48

L568 45

L569 46

C569 47 569 49 569 49

L568 51

L568 48

Z

M76 47

C89 47 111 47 123 47

L147 48

L100 48

L53 48

L76 47

Z

M230 47

C242 47 262 47 274 47

L297 48

L252 48

L208 48

L230 47

Z

"/>

<path fill="#b7b7b7" stroke="none" d="
M44 249

C56 249 76 249 88 249

L111 250

L66 250

L22 250

L44 249

Z

M76 47

C89 47 111 47 123 47

L147 48

L100 48

L53 48

L76 47

Z

M230 47

C242 47 262 47 274 47

L297 48

L252 48

L208 48

L230 47

Z

"/>

<path fill="#ffffff" stroke="none" d="
"/>

<path fill="#ffffff" stroke="none" d="
"/>

<path fill="#ffffff" stroke="none" d="
"/>

<path fill="#ffffff" stroke="none" d="
"/>

<path fill="#ffffff" stroke="none" d="
"/>

</svg>

