<?xml version="1.0" standalone="no"?>

<!DOCTYPE svg PUBLIC "-//W3C//DTD SVG 20010904//EN"

 "http://www.w3.org/TR/2001/REC-SVG-20010904/DTD/svg10.dtd">

<svg version="1.0" xmlns="http://www.w3.org/2000/svg"

 width="700.000000pt" height="601.000000pt" viewBox="0 0 700.000000 601.000000"

 preserveAspectRatio="xMidYMid meet">

<path fill="#000000" stroke="none" d="
M134 548

C131 545 131 542 133 529

C136 517 140 506 146 496

C150 489 165 474 172 470

C179 466 195 460 200 459

C203 459 205 459 205 458

L205 458

L198 450

C189 440 181 430 176 421

L171 413

L164 420

C156 428 144 434 134 437

C125 438 122 438 114 437

C100 434 87 426 74 413

C64 402 61 398 61 394

C61 389 64 387 73 383

C92 377 112 375 130 377

C137 377 145 379 148 379

C151 380 154 381 155 381

L156 381

L154 375

C149 362 144 335 144 324

L144 321

L134 320

C120 319 111 316 101 308

C94 303 92 301 86 293

C75 277 67 252 67 228

C67 220 67 219 69 217

C71 215 72 215 76 215

C93 215 111 224 125 239

C132 246 142 260 145 266

L146 269

L147 269

L148 269

L149 261

C152 251 157 235 162 225

C164 220 166 217 166 216

L166 216

L165 216

C164 216 160 214 155 212

C141 205 131 192 126 176

C124 166 124 145 127 131

C129 120 135 101 139 92

C142 85 146 82 151 83

C158 85 171 100 179 117

L185 128

L185 128

L184 128

L186 134

C188 141 191 157 191 169

C192 173 192 178 192 178

L192 178

L204 166

C210 160 217 153 218 152

C221 150 221 150 222 138

C226 100 242 74 272 59

C285 52 306 48 312 51

C315 52 317 57 317 65

C317 97 296 126 257 149

C252 152 244 157 239 160

C218 171 194 200 180 228

C135 319 171 428 260 476

C271 482 286 488 298 491

C306 494 307 494 309 492

C313 489 320 488 324 491

C334 496 335 511 325 516

C319 519 312 518 307 514

C305 512 302 510 300 510

C286 507 259 496 242 486

L234 481

L234 481

C233 481 232 484 231 487

C227 498 220 508 211 517

C199 529 187 537 172 543

C169 544 166 545 165 545

L164 546

L164 546

L164 545

L157 547

C153 548 147 549 143 550

C137 550 136 550 134 548

Z

M549 549

C548 548 542 547 537 545

C504 535 480 514 469 487

C468 484 467 481 466 481

L466 481

L458 486

C441 496 424 503 407 508

C398 510 396 511 393 514

C387 521 379 522 372 516

C365 510 366 500 373 494

C377 491 378 490 382 491

C385 491 388 492 390 492

C392 494 393 494 402 492

C445 480 484 451 510 412

C525 389 536 355 539 329

C540 310 538 283 535 270

C534 268 534 266 534 266

C532 256 523 233 516 220

C510 210 504 201 503 200

L502 200

L502 199

C502 197 489 182 480 174

C471 165 469 164 454 155

C416 134 396 114 387 88

C384 79 384 77 384 66

C384 54 384 54 386 52

C388 50 389 50 397 50

C420 52 444 65 458 82

C469 97 476 116 478 138

C479 150 479 150 482 153

C484 154 491 160 497 166

L508 178

L508 170

C511 133 519 111 538 92

C551 79 555 79 562 96

C564 100 566 105 567 107

C567 108 567 109 568 110

C570 116 574 136 575 144

C579 176 568 200 545 212

C540 214 536 216 535 216

L534 216

L534 216

C534 217 536 220 538 225

C543 235 548 251 551 261

L552 269

L553 269

L554 269

L555 266

C558 260 568 245 575 238

C587 226 601 219 617 215

C627 214 630 214 633 219

C635 223 633 243 629 259

C628 263 627 267 627 268

C626 269 625 272 622 279

C610 304 589 320 564 320

L557 320

L557 321

C556 322 556 327 555 333

C554 345 552 356 548 368

C547 373 546 377 546 378

C546 378 545 379 545 380

L544 381

L545 381

C546 381 549 380 552 379

C555 379 563 377 570 377

C589 375 609 377 628 384

C644 389 643 396 623 416

C609 429 597 435 583 437

C568 439 549 433 536 420

L529 413

L526 418

C524 421 523 423 523 424

C523 424 523 425 522 425

C522 425 518 430 514 435

C510 440 504 447 501 451

C498 455 495 458 495 458

L495 459

L501 460

C509 461 522 466 529 471

C549 484 562 505 568 534

C569 543 569 547 565 549

C563 550 553 550 549 549

Z

M336 460

C325 459 314 457 304 453

C296 451 275 442 272 439

L270 438

L299 408

C329 379 329 379 334 380

C341 382 359 382 366 380

C371 379 371 379 401 408

L430 438

L424 441

C398 456 365 463 336 460

Z

M243 416

C236 409 231 403 231 403

C231 402 244 389 259 374

L287 346

L287 346

C287 346 289 348 290 351

C293 355 305 366 309 369

L311 371

L283 399

C268 414 255 427 254 427

L254 427

L243 416

Z

M416 399

L389 371

L391 369

C395 366 407 355 410 351

C411 348 413 346 413 346

L413 346

L441 374

C456 389 469 402 469 403

C468 406 447 427 445 427

C445 427 432 414 416 399

Z

M218 385

C218 385 216 379 213 373

L207 362

L208 362

L208 362

L205 355

C197 330 196 299 203 271

C206 260 213 242 217 235

L220 231

L249 261

C279 291 279 291 278 297

C277 304 277 313 278 321

C279 327 279 327 250 357

C234 373 220 386 219 386

L218 386

L218 385

Z

M450 357

C421 327 421 327 422 321

C423 313 423 304 422 297

C421 291 421 291 451 261

L480 231

L484 237

C486 240 489 247 491 253

C504 286 505 322 494 356

C492 365 482 386 480 386

C480 386 466 373 450 357

Z

M259 244

C243 229 230 216 230 216

L230 215

L242 203

L254 191

L282 219

L311 247

L305 252

C300 256 295 261 289 269

L287 272

L259 244

Z

M408 265

C405 261 400 255 396 253

C393 250 390 248 390 247

C390 247 403 234 418 219

L446 191

L455 200

C460 205 465 210 467 212

L470 216

L442 244

L413 272

L408 265

Z

M299 210

L270 180

L270 180

C272 177 294 167 303 165

C320 159 330 158 350 158

C369 157 380 159 397 165

C407 168 427 177 429 179

L430 181

L401 210

C372 239 372 239 365 237

C355 235 339 236 330 239

C329 239 318 229 299 210

Z

"/>

<path fill="#222222" stroke="none" d="
M347 460

C349 460 351 460 353 460

L357 461

L350 461

L344 461

L347 460

Z

M202 455

L199 451

L203 454

L206 458

L206 458

L206 459

L202 455

Z

M494 458

C494 458 496 456 498 454

L502 451

L498 454

C496 457 494 459 494 459

L494 459

L494 458

Z

M215 444

L211 439

L211 439

C211 439 214 441 216 444

L220 448

L220 448

C220 448 217 446 215 444

Z

M484 444

C486 442 488 440 488 440

L488 440

L485 444

C483 445 481 447 481 447

L481 447

L484 444

Z

M416 399

L389 371

L417 399

C433 414 446 427 446 427

L446 427

L445 427

C445 427 432 414 416 399

Z

M248 421

L247 420

L248 421

C249 422 250 422 250 423

L250 423

L250 423

C249 423 249 422 248 421

Z

M450 423

C450 422 451 422 452 421

L454 420

L452 421

C451 422 451 423 450 423

L450 423

L450 423

Z

M462 411

C462 410 463 410 464 409

L466 408

L464 409

C463 410 463 411 462 411

L462 411

L462 411

Z

M117 375

L118 375

L119 375

L119 376

L117 376

L116 376

L117 375

Z

M582 375

L583 375

L584 375

L584 376

L582 376

L581 376

L582 375

Z

M298 360

L295 357

L298 360

C300 362 302 364 302 364

L302 364

L302 364

C302 364 300 362 298 360

Z

M401 361

C403 359 405 357 405 357

L405 357

L402 361

C400 362 398 364 398 364

L398 364

L401 361

Z

M160 317

L160 314

L161 315

C161 316 161 318 161 318

L160 320

L160 317

Z

M198 317

L198 316

L199 317

L199 318

L199 319

L198 319

L198 317

Z

M501 317

L501 316

L502 317

L502 318

L502 319

L501 319

L501 317

Z

M539 316

L539 313

L540 314

C540 315 540 317 540 317

L539 319

L539 316

Z

M539 306

L539 303

L540 304

C540 305 540 307 540 308

L539 310

L539 306

Z

M160 305

L160 302

L161 303

C161 304 161 306 161 306

L160 308

L160 305

Z

M574 239

C575 237 577 236 577 236

L577 236

L575 239

C574 240 572 241 572 241

L572 241

L574 239

Z

M66 226

L66 225

L67 226

L67 227

L67 228

L66 228

L66 226

Z

M633 225

L633 221

L634 223

C634 224 634 226 634 227

L633 229

L633 225

Z

M140 202

L139 200

L141 201

C142 202 143 203 143 204

L143 204

L143 204

C142 204 141 203 140 202

Z

M559 202

C559 201 561 200 561 200

L561 200

L560 202

C559 203 557 204 557 204

L557 204

L559 202

Z

M508 175

L508 171

L509 173

C509 174 509 176 509 177

L508 179

L508 175

Z

M191 174

L191 172

L192 173

C192 173 192 175 192 175

L191 177

L191 174

Z

M221 148

L221 145

L222 146

C222 147 222 149 222 149

L221 151

L221 148

Z

M478 148

L478 146

L479 147

C479 147 479 149 479 149

L478 151

L478 148

Z

M414 128

L413 127

L414 128

C415 129 416 129 416 130

L416 130

L416 130

C415 130 415 129 414 128

Z

M285 129

C285 128 286 128 287 127

L289 126

L287 127

C286 128 286 129 285 129

L285 129

L285 129

Z

M292 122

C292 121 293 121 294 120

L296 119

L294 120

C293 121 293 122 292 122

L292 122

L292 122

Z

M406 120

L405 119

L406 120

C407 121 408 121 408 122

L408 122

L408 122

C407 122 407 121 406 120

Z

M157 87

L156 86

L157 87

C158 88 159 88 159 89

L159 89

L159 89

C158 89 158 88 157 87

Z

M245 79

C245 79 246 77 248 75

L252 73

L249 76

C247 78 245 79 245 79

L245 79

L245 79

Z

M451 76

L449 73

L452 75

C454 77 455 79 455 79

L455 79

L455 79

C455 79 453 78 451 76

Z

M384 54

C384 53 385 53 386 52

L388 51

L386 52

C385 53 385 54 384 54

L384 54

L384 54

Z

"/>

<path fill="#b3b3b3" stroke="none" d="
M416 399

L389 371

L417 398

C432 414 445 427 445 427

L445 427

L445 427

C445 427 432 414 416 399

Z

M117 375

L118 375

L119 375

L119 376

L117 376

L116 376

L117 375

Z

M582 375

L583 375

L584 375

L584 376

L582 376

L581 376

L582 375

Z

"/>

<path fill="#ffffff" stroke="none" d="
"/>

<path fill="#ffffff" stroke="none" d="
"/>

<path fill="#ffffff" stroke="none" d="
"/>

<path fill="#ffffff" stroke="none" d="
"/>

<path fill="#ffffff" stroke="none" d="
"/>

</svg>

